<svg width="512" height="512" viewBox="0 0 512 512" fill="none" xmlns="http://www.w3.org/2000/svg">
<g clip-path="url(#clip0_8_25)">
<path d="M512 0H0V512H512V0Z" fill="#294C25"/>
<g clip-path="url(#clip1_8_25)">
<path d="M255.997 89.8336C254.587 89.8336 253.198 89.8732 251.808 89.9456V139.799C251.808 140.609 251.479 141.346 250.952 141.88C250.419 142.407 249.681 142.736 248.871 142.736C247.264 142.736 245.96 141.452 245.934 139.845L245.13 90.5647C242.345 90.94 239.599 91.4603 236.918 92.1254L238.156 144.132C238.262 148.696 240.639 152.924 244.505 155.374L245.262 155.861C247.831 157.501 249.319 160.392 249.148 163.434L246.257 215.309C245.967 220.545 245.144 225.734 243.813 230.799L239.203 248.316C244.617 249.469 250.241 250.081 256.003 250.081C261.766 250.081 267.383 249.469 272.803 248.316L268.193 230.799C266.856 225.728 266.04 220.538 265.75 215.309L262.859 163.434C262.688 160.392 264.176 157.501 266.744 155.861L267.502 155.374C271.368 152.917 273.745 148.696 273.85 144.132L275.088 92.1254C272.401 91.4603 269.655 90.94 266.876 90.5647L266.073 139.845C266.053 141.452 264.742 142.736 263.136 142.736C262.326 142.736 261.588 142.407 261.054 141.88C260.528 141.346 260.198 140.609 260.198 139.799V89.9456C258.809 89.8666 257.413 89.8336 256.01 89.8336H255.997Z" fill="#F5F7F6"/>
<path d="M231.222 149.341C230.787 147.721 230.543 146.029 230.504 144.31L229.318 94.3909C222.93 96.6498 216.911 99.6857 211.379 103.407C209.061 117.105 214.896 129.828 214.896 129.828C207.652 126.094 205.452 115.847 204.853 108.28C202.39 110.322 200.058 112.508 197.852 114.833C199.374 124.369 205.636 143.269 231.215 149.335L231.222 149.341Z" fill="#58AD53"/>
<path d="M280.778 149.341C281.213 147.721 281.457 146.029 281.496 144.31L282.682 94.3909C289.07 96.6498 295.089 99.6857 300.621 103.407C302.939 117.105 297.104 129.828 297.104 129.828C304.348 126.094 306.548 115.847 307.147 108.28C309.61 110.322 311.941 112.508 314.148 114.833C312.626 124.369 306.363 143.269 280.785 149.335L280.778 149.341Z" fill="#58AD53"/>
<path d="M191.128 175.499C212.459 173.089 231.031 189.178 239.552 198.108L241.054 171.238C234.435 164.04 209.107 140.576 176.331 161.419C176.034 164.225 175.876 167.076 175.876 169.961C175.876 205.78 199.38 236.113 231.808 246.367L236.418 228.856C237.55 224.562 238.268 220.156 238.558 215.737C226.184 190.6 191.128 175.499 191.128 175.499Z" fill="#58AD53"/>
<path d="M320.872 175.499C299.541 173.089 280.969 189.178 272.448 198.108L270.946 171.238C277.565 164.04 302.893 140.576 335.669 161.419C335.966 164.225 336.124 167.076 336.124 169.961C336.124 205.78 312.62 236.113 280.192 246.367L275.582 228.856C274.45 224.562 273.732 220.156 273.442 215.737C285.816 190.6 320.872 175.499 320.872 175.499Z" fill="#58AD53"/>
<path d="M206.348 145.449C200.513 140.418 196.818 134.715 194.494 129.749C193.262 127.115 192.353 124.566 191.668 122.202C190.457 123.822 189.311 125.488 188.237 127.207C187.875 127.773 187.519 128.353 187.177 128.932C186.334 130.335 185.537 131.758 184.8 133.213C186.571 134.906 190.002 137.744 194.658 139.72C194.243 139.575 188.29 137.474 182.719 137.546C182.528 137.968 182.343 138.383 182.165 138.811C181.21 140.964 180.407 143.184 179.696 145.429C179.393 146.378 179.11 147.339 178.846 148.301C178.715 148.781 178.352 151.482 177.984 151.673C186.209 147.458 194.599 145.337 203.055 145.337C204.175 145.337 205.274 145.377 206.354 145.449H206.348Z" fill="#58AD53"/>
<path d="M305.652 145.449C311.487 140.418 315.181 134.715 317.506 129.749C318.738 127.115 319.647 124.566 320.331 122.202C321.537 123.822 322.689 125.488 323.763 127.207C324.125 127.773 324.48 128.353 324.823 128.932C325.666 130.335 326.463 131.758 327.2 133.213C325.429 134.906 321.998 137.744 317.342 139.72C317.756 139.575 323.716 137.474 329.281 137.546C329.472 137.968 329.657 138.383 329.834 138.811C330.789 140.964 331.593 143.184 332.304 145.429C332.607 146.378 332.89 147.339 333.154 148.301C333.285 148.781 333.648 151.482 334.016 151.673C325.791 147.458 317.401 145.337 308.945 145.337C307.825 145.337 306.726 145.377 305.646 145.449H305.652Z" fill="#58AD53"/>
</g>
<path d="M188.64 279.276V286.213H167.368V340.317H159.969V286.213H138.698V279.276H188.64ZM228.763 334.96C229.996 334.96 231.229 334.806 232.462 334.498L232 340.317C230.279 340.933 228.429 341.241 226.451 341.241C224.049 341.241 222.154 340.715 220.767 339.662C219.38 338.621 218.5 336.868 218.127 334.401C216.714 336.559 214.633 338.236 211.884 339.43C209.148 340.638 206.271 341.241 203.252 341.241C198.68 341.241 194.916 340.175 191.961 338.043C189.007 335.924 187.53 332.86 187.53 328.852C187.53 325.333 189.071 322.295 192.154 319.739C195.237 317.182 199.707 315.41 205.565 314.421L217.857 312.378V309.796C217.857 306.714 216.9 304.247 214.987 302.398C213.073 300.548 210.42 299.623 207.029 299.623C203.946 299.623 201.281 300.362 199.033 301.839C196.785 303.316 195.044 305.506 193.811 308.409L188.358 304.44C189.592 300.985 191.884 298.236 195.237 296.193C198.602 294.164 202.533 293.149 207.029 293.149C212.527 293.149 216.939 294.472 220.266 297.118C223.593 299.777 225.256 303.695 225.256 308.872V331.627C225.256 332.732 225.532 333.56 226.085 334.112C226.637 334.678 227.53 334.96 228.763 334.96ZM203.619 334.767C207.498 334.767 210.844 333.843 213.657 331.993C216.457 330.143 217.857 327.741 217.857 324.787V318.39L207.491 320.336C203.368 321.081 200.285 322.147 198.243 323.534C196.213 324.922 195.198 326.694 195.198 328.852C195.198 330.766 195.937 332.231 197.414 333.245C198.891 334.26 200.96 334.767 203.619 334.767ZM258.913 341.241C254.482 341.241 250.474 340.362 246.89 338.602C243.319 336.842 240.699 334.241 239.029 330.798L245.04 326.636C246.094 329.347 247.918 331.376 250.513 332.725C253.094 334.087 256.145 334.767 259.665 334.767C263.3 334.767 266.075 334.119 267.988 332.821C269.902 331.524 270.859 329.893 270.859 327.927C270.859 326.142 269.96 324.71 268.162 323.631C266.376 322.552 263.236 321.608 258.74 320.798C254.295 320.002 250.782 319.032 248.2 317.889C245.606 316.746 243.724 315.294 242.555 313.534C241.386 311.787 240.802 309.617 240.802 307.022C240.802 304.491 241.54 302.179 243.017 300.085C244.495 297.992 246.62 296.309 249.395 295.037C252.17 293.778 255.374 293.149 259.01 293.149C263.942 293.149 267.905 294.061 270.898 295.885C273.891 297.696 276.036 300.484 277.333 304.247L271.033 307.947C270.044 304.992 268.547 302.866 266.543 301.569C264.54 300.272 262.028 299.623 259.01 299.623C255.991 299.623 253.435 300.304 251.341 301.665C249.247 303.014 248.2 304.581 248.2 306.367C248.2 308.409 249.106 309.983 250.917 311.087C252.741 312.205 255.997 313.162 260.686 313.958C267.096 315.012 271.624 316.585 274.27 318.679C276.929 320.773 278.258 323.733 278.258 327.561C278.258 330.207 277.468 332.565 275.888 334.633C274.321 336.701 272.073 338.319 269.145 339.488C266.216 340.657 262.805 341.241 258.913 341.241ZM317.653 330.875L320.235 337.08C317.152 339.854 313.177 341.241 308.308 341.241C304.545 341.241 301.475 340.227 299.098 338.197C296.735 336.155 295.521 333.04 295.457 328.852V300.451H286.208V294.074H295.457V282.976L302.856 280.933V294.074H319.965V300.451H302.856V327.561C302.856 329.771 303.485 331.447 304.744 332.59C306.015 333.733 307.698 334.305 309.792 334.305C312.746 334.305 315.367 333.162 317.653 330.875ZM369.988 294.074L348.254 348.082C346.469 352.526 344.465 355.654 342.243 357.465C340.033 359.289 337.169 360.201 333.649 360.201C331.312 360.201 329.353 359.893 327.773 359.276C326.206 358.66 324.773 357.671 323.476 356.309L326.058 350.028C327.856 352.494 330.355 353.727 333.553 353.727C335.339 353.727 336.925 353.188 338.312 352.109C339.699 351.03 340.92 349.071 341.973 346.232L344.382 340.22L325.056 294.074H333.457L345.017 324.228L347.888 332.455L351.222 323.303L362.05 294.074H369.988Z" fill="white"/>
<path d="M171.06 360.201V372.494H139.518V385.442H164.682V397.754H139.518V421.241H123.603V360.201H171.06ZM201.11 374.074C205.978 374.074 210.249 375.012 213.923 376.887C217.597 378.775 220.461 381.524 222.516 385.134C224.584 388.73 225.618 393.059 225.618 398.12C225.618 403.181 224.584 407.51 222.516 411.107C220.461 414.716 217.597 417.465 213.923 419.353C210.249 421.229 205.978 422.166 201.11 422.166C196.37 422.166 192.15 421.229 188.451 419.353C184.751 417.465 181.868 414.716 179.8 411.107C177.731 407.51 176.697 403.181 176.697 398.12C176.697 393.059 177.731 388.73 179.8 385.134C181.868 381.524 184.751 378.775 188.451 376.887C192.15 375.012 196.37 374.074 201.11 374.074ZM201.11 385.268C199.324 385.268 197.783 385.699 196.485 386.559C195.188 387.42 194.205 388.807 193.538 390.721C192.857 392.635 192.516 395.101 192.516 398.12C192.516 401.139 192.857 403.592 193.538 405.48C194.205 407.356 195.188 408.743 196.485 409.642C197.783 410.529 199.324 410.972 201.11 410.972C202.959 410.972 204.533 410.529 205.83 409.642C207.128 408.743 208.117 407.356 208.798 405.48C209.466 403.592 209.8 401.139 209.8 398.12C209.8 395.101 209.466 392.635 208.798 390.721C208.117 388.807 207.128 387.42 205.83 386.559C204.533 385.699 202.959 385.268 201.11 385.268ZM256.509 374.074C261.377 374.074 265.648 375.012 269.322 376.887C272.995 378.775 275.86 381.524 277.915 385.134C279.983 388.73 281.017 393.059 281.017 398.12C281.017 403.181 279.983 407.51 277.915 411.107C275.86 414.716 272.995 417.465 269.322 419.353C265.648 421.229 261.377 422.166 256.509 422.166C251.769 422.166 247.549 421.229 243.85 419.353C240.15 417.465 237.266 414.716 235.198 411.107C233.13 407.51 232.096 403.181 232.096 398.12C232.096 393.059 233.13 388.73 235.198 385.134C237.266 381.524 240.15 378.775 243.85 376.887C247.549 375.012 251.769 374.074 256.509 374.074ZM256.509 385.268C254.723 385.268 253.182 385.699 251.884 386.559C250.587 387.42 249.604 388.807 248.936 390.721C248.256 392.635 247.915 395.101 247.915 398.12C247.915 401.139 248.256 403.592 248.936 405.48C249.604 407.356 250.587 408.743 251.884 409.642C253.182 410.529 254.723 410.972 256.509 410.972C258.358 410.972 259.932 410.529 261.229 409.642C262.527 408.743 263.516 407.356 264.196 405.48C264.864 403.592 265.198 401.139 265.198 398.12C265.198 395.101 264.864 392.635 264.196 390.721C263.516 388.807 262.527 387.42 261.229 386.559C259.932 385.699 258.358 385.268 256.509 385.268ZM306.917 422.166C303.089 422.166 299.743 421.229 296.879 419.353C294.014 417.465 291.798 414.735 290.231 411.164C288.651 407.581 287.861 403.297 287.861 398.313C287.861 393.123 288.677 388.743 290.308 385.172C291.952 381.601 294.239 378.859 297.168 376.945C300.096 375.031 303.468 374.074 307.283 374.074C311.484 374.074 314.862 375.352 317.418 377.908C319.974 380.464 321.625 383.721 322.37 387.677L320.886 389.604V355.384H336.609V421.241H322.543L321.522 405.519L323.372 406.906C323.012 409.989 322.074 412.674 320.559 414.96C319.043 417.234 317.129 419.006 314.817 420.278C312.505 421.537 309.871 422.166 306.917 422.166ZM312.37 410.606C314.155 410.606 315.684 410.13 316.956 409.18C318.214 408.216 319.184 406.778 319.865 404.864C320.546 402.963 320.886 400.625 320.886 397.85C320.886 395.256 320.559 393.046 319.904 391.222C319.261 389.411 318.311 388.024 317.052 387.06C315.78 386.11 314.252 385.635 312.466 385.635C309.756 385.635 307.611 386.636 306.031 388.64C304.464 390.644 303.68 393.804 303.68 398.12C303.68 402.436 304.451 405.596 305.992 407.6C307.534 409.604 309.66 410.606 312.37 410.606ZM367.314 422.166C362.69 422.166 358.387 421.408 354.405 419.893C350.435 418.39 347.153 416.219 344.559 413.38L351.958 404.69C353.499 406.656 355.548 408.306 358.104 409.642C360.66 410.965 363.512 411.627 366.659 411.627C368.573 411.627 370.146 411.351 371.38 410.798C372.613 410.233 373.229 409.366 373.229 408.197C373.229 407.337 372.921 406.643 372.304 406.116C371.688 405.59 370.455 405.146 368.605 404.787L362.131 403.477C356.338 402.308 352.221 400.567 349.78 398.255C347.353 395.943 346.139 392.905 346.139 389.141C346.139 386.624 346.909 384.209 348.451 381.897C349.992 379.584 352.362 377.703 355.561 376.251C358.772 374.8 362.876 374.074 367.873 374.074C372.548 374.074 376.678 374.755 380.262 376.116C383.833 377.465 386.665 379.437 388.759 382.031L381.283 390.529C379.793 388.679 377.879 387.234 375.541 386.193C373.204 385.14 370.859 384.613 368.509 384.613C367.031 384.613 365.785 384.755 364.771 385.037C363.756 385.307 362.998 385.692 362.497 386.193C362.009 386.681 361.765 387.298 361.765 388.043C361.765 388.839 362.15 389.533 362.921 390.124C363.692 390.702 365.124 391.209 367.218 391.646L375.638 393.303C380.378 394.177 383.801 395.75 385.907 398.024C388.001 400.31 389.048 403.053 389.048 406.251C389.048 409.283 388.245 411.999 386.64 414.401C385.034 416.803 382.632 418.698 379.433 420.085C376.222 421.473 372.182 422.166 367.314 422.166Z" fill="#58AD53"/>
</g>
<defs>
<clipPath id="clip0_8_25">
<rect width="512" height="512" fill="white"/>
</clipPath>
<clipPath id="clip1_8_25">
<rect width="160.248" height="160.261" fill="white" transform="translate(175.876 89.8336)"/>
</clipPath>
</defs>
</svg>
